<svg width="96" height="96" viewBox="0 0 96 96" fill="none" xmlns="http://www.w3.org/2000/svg">
  <rect width="96" height="96" rx="32" fill="#E7F0E5"/>
  <circle cx="48" cy="47" r="25" fill="#FFF8EA"/>
  <path d="M33 49C33 41 39 35 48 35C57 35 63 41 63 49C63 58 57 64 48 64C39 64 33 58 33 49Z" fill="#F7D7C4"/>
  <path d="M32 44C35 31 45 26 54 31C62 35 66 45 62 56C58 47 51 43 42 43C38 43 35 43 32 44Z" fill="#536F5A"/>
  <circle cx="40" cy="49" r="3" fill="#243326"/>
  <circle cx="56" cy="49" r="3" fill="#243326"/>
  <path d="M42 58C46 61 51 61 55 58" stroke="#243326" stroke-width="3" stroke-linecap="round"/>
  <path d="M28 67C34 75 41 79 48 79C55 79 62 75 68 67" stroke="#C87557" stroke-width="5" stroke-linecap="round"/>
  <path d="M70 28C74 20 82 21 83 29C84 37 75 40 70 28Z" fill="#C87557"/>
  <path d="M26 28C22 20 14 21 13 29C12 37 21 40 26 28Z" fill="#C87557"/>
</svg>
